<?xml version="1.0" encoding="UTF-8"?>
<!DOCTYPE svg PUBLIC "-//W3C//DTD SVG 1.1//EN" "http://www.w3.org/Graphics/SVG/1.1/DTD/svg11.dtd">
<svg version="1.1" xmlns="http://www.w3.org/2000/svg" xmlns:xlink="http://www.w3.org/1999/xlink" x="0" y="0" width="792" height="612" viewBox="0, 0, 792, 612">
  <defs>
    <filter id="Shadow_1">
      <feGaussianBlur in="SourceAlpha" stdDeviation="2.5"/>
      <feOffset dx="0" dy="2" result="offsetblur"/>
      <feFlood flood-color="#000000"/>
      <feComposite in2="offsetblur" operator="in"/>
    </filter>
    <linearGradient id="Gradient_1" gradientUnits="userSpaceOnUse" x1="350.493" y1="173.363" x2="355.841" y2="411.637">
      <stop offset="0" stop-color="#0012FA" stop-opacity="0.959"/>
      <stop offset="0.214" stop-color="#001FFB" stop-opacity="0.963"/>
      <stop offset="0.615" stop-color="#0093FF"/>
      <stop offset="0.991" stop-color="#ADDCFF"/>
    </linearGradient>
  </defs>
  <g id="Layer_1">
    <g>
      <path d="M460.333,173.333 C466.961,173.333 472.333,178.706 472.333,185.333 L472.333,399.667 C472.333,406.294 466.961,411.667 460.333,411.667 L246,411.667 C239.373,411.667 234,406.294 234,399.667 L234,185.333 C234,178.706 239.373,173.333 246,173.333 L460.333,173.333 z" filter="url(#Shadow_1)" fill="rgba(0,0,0,0.65)"/>
      <path d="M246,173.333 L460.333,173.333 C466.961,173.333 472.333,178.706 472.333,185.333 L472.333,399.667 C472.333,406.294 466.961,411.667 460.333,411.667 L246,411.667 C239.373,411.667 234,406.294 234,399.667 L234,185.333 C234,178.706 239.373,173.333 246,173.333 z" fill="url(#Gradient_1)"/>
    </g>
    <g>
      <path d="M472.333,390.243 C95.065,399.723 310.925,190.983 472.333,186.243" fill="#FFFFFF"/>
      <path d="M472.333,390.243 C95.065,399.723 310.925,190.983 472.333,186.243" fill-opacity="0" stroke="#000000" stroke-width="1"/>
    </g>
    <path d="M208.667,269 L208.667,269" fill-opacity="0" stroke="#000000" stroke-width="1"/>
    <g>
      <path d="M395.333,296.794 L403.333,299.461 L419.667,302.794 C418.333,307.461 418.667,306.794 417.667,311.127 L414.333,325.794 C411.667,332.794 410,339.794 409.333,339.127 L392.333,335.794 C382.333,333.127 367.355,329.127 362.333,324.127 L370,305.461 C372.667,299.461 373.333,296.461 376.333,292.127 z" fill="#0395FE"/>
      <path d="M345.667,272.127 L349.333,274.461 L357.333,280.794 C360.52,285.321 365.333,286.461 371.667,291.128 L362.333,309.461 C358.333,314.794 359.333,318.461 355.333,319.794 L335.754,305.794 C332.333,301.461 328.333,299.127 323.667,293.127 L335.725,276.127 C339.612,270.552 336.627,276.127 340.667,268.461 z" fill="#027DFE"/>
      <path d="M329.861,251.72 L332.395,255.838 L337.463,262.807 C338.879,264.937 337.874,266.35 333.344,270.699 L320.038,286.884 C318.137,286.251 316.87,284.35 312.435,279.282 L307.367,270.701 C305.951,268.571 300.61,269.774 304.517,265.343 L319.09,252.354 C323.208,249.186 328.277,245.384 330.812,244.75 z" fill="#0258FA"/>
      <path d="M439.254,298.627 C379.629,298.627 331.294,271.765 331.294,238.627" fill-opacity="0" stroke="#FFFFFF" stroke-width="12"/>
      <path d="M420.667,338.838 C357.633,338.838 306.534,302.255 306.534,257.127" fill-opacity="0" stroke="#FFFFFF" stroke-width="12"/>
      <path d="M342.667,261.128 L318.333,293.794" fill-opacity="0" stroke="#FFFFFF" stroke-width="8"/>
      <path d="M375.249,285.461 L358.527,324.794" fill-opacity="0" stroke="#FFFFFF" stroke-width="8"/>
      <path d="M419.667,296.566 L415,334.733" fill-opacity="0" stroke="#FFFFFF" stroke-width="8"/>
      <path d="M331.627,237.627 L300.96,263.961" fill-opacity="0" stroke="#FFFFFF" stroke-width="5"/>
    </g>
  </g>
</svg>
